<svg viewBox="0 0 149 92" fill="none" xmlns="http://www.w3.org/2000/svg">
<path fill-rule="evenodd" clip-rule="evenodd" d="M90.7487 74.1775L90.2324 74.2044L89.711 74.0137C90.0502 74.138 90.4128 74.1949 90.7487 74.1775ZM109.332 73.2199L110.217 73.262L109.332 73.2199ZM122.617 70.1293C122.274 69.9296 121.881 69.7603 121.461 69.6255L109.809 65.3587C110.959 64.2377 111.092 62.8567 109.68 61.3935C107.398 59.03 103.496 58.9441 99.9285 60.1275C99.1595 60.3827 98.4748 60.6784 97.8872 61.005L88.6718 57.6404C90.4048 56.4388 90.8695 54.8411 89.2172 53.13C86.9355 50.7665 83.034 50.6806 79.4662 51.864C78.3197 52.2446 77.3507 52.7107 76.6347 53.2456L73.716 52.1797L72.015 52.7948L68.9632 53.8984L67.6109 54.387L54.3103 59.1974C52.6432 59.8002 52.3665 60.7302 52.3494 61.2315C52.3214 61.3359 52.3279 61.4537 52.3799 61.5806L57.6054 68.74C58.3883 70.6433 60.4587 72.3903 63.1287 73.3993L90.219 89.1808L91.4131 89.6321L93.5097 90.4244C95.9277 91.3385 98.5352 91.7332 100.911 91.5444L115.968 90.3501L118.796 90.6955C118.808 90.6969 120.923 90.9742 121.47 91.0224C122.104 91.0996 122.709 91.0449 123.204 90.8662L124.086 90.5469C124.087 90.5469 129.294 91.0068 130.388 88.2682C131.059 86.5871 123.821 70.8332 122.617 70.1293Z" fill="#1B1464"/>
<path fill-rule="evenodd" clip-rule="evenodd" d="M121.373 51.9141C121.373 51.9141 125.361 55.473 123.682 59.8101C122.651 62.4723 103.695 76.6597 102.242 76.5925C99.1787 76.4502 95.6312 72.054 100.589 67.5701C102.362 65.9666 121.373 51.9141 121.373 51.9141Z" fill="#333333"/>
<path fill-rule="evenodd" clip-rule="evenodd" d="M83.0744 45.5093L83.602 45.6821L92.7538 57.9783L83.9329 46.1269C83.718 45.8373 83.4176 45.622 83.0744 45.5093ZM95.855 62.1164L96.8859 63.1552L95.855 62.1164ZM100.223 66.5173L100.197 66.5383C100.137 66.4491 100.07 66.3639 99.994 66.2867L100.223 66.5173ZM45.5942 36.1145L52.0803 58.2987C52.2418 58.8514 52.6668 59.2893 53.2163 59.4676L99.8042 74.626C101.14 75.0606 102.418 73.8265 102.025 72.4818L100.622 67.6815C102.621 66.9178 104.985 68.3121 104.985 68.3121C104.985 68.3121 120.555 57.3487 120.065 55.3418C119.576 53.3346 121.44 52.1403 121.44 52.1403L121.05 50.8087C120.869 50.1885 120.501 49.6387 119.998 49.2327L115.619 45.7079L106.331 32.2229C104.865 30.095 102.723 28.5208 100.25 27.755L69.1782 18.1323C66.4478 17.2867 63.4745 17.851 61.247 19.6379L46.3829 31.5625C46.2342 31.6821 46.1258 31.8253 46.052 31.9801C45.6189 32.6281 44.9833 34.0254 45.5942 36.1145Z" fill="#FC153B"/>
<path fill-rule="evenodd" clip-rule="evenodd" d="M85.8971 52.113C85.8971 52.113 83.1191 47.4628 81.6501 46.5918C80.6258 45.9844 77.6093 45.1779 76.0821 44.9115C74.6295 44.6582 77.0351 52.6806 77.4693 54.166C78.1529 56.5041 84.5339 58.3994 84.5339 58.3994C84.5339 58.3994 86.736 59.8941 86.1891 56.2203C85.5204 51.7288 85.8971 52.113 85.8971 52.113Z" fill="white"/>
<path fill-rule="evenodd" clip-rule="evenodd" d="M80.0642 56.3205C80.0642 56.3205 79.2675 53.5945 79.4609 53.2429C79.6547 52.8906 81.2954 52.4143 82.1953 52.4484C82.7873 52.4709 83.2167 53.693 83.4407 54.5263L83.4432 54.5256C83.4432 54.5256 84.2403 57.2509 84.0465 57.6032C83.8527 57.9551 82.212 58.4317 81.3125 58.3973C80.7201 58.3748 80.2911 57.153 80.0667 56.3197L80.0642 56.3205Z" fill="#333333"/>
<path fill-rule="evenodd" clip-rule="evenodd" d="M83.92 56.8798C84.733 57.1342 86.1893 56.2205 86.1893 56.2205L85.9249 55.3158C85.1494 56.0316 83.6553 55.9747 83.6553 55.9747L83.92 56.8798Z" fill="#333333"/>
<path fill-rule="evenodd" clip-rule="evenodd" d="M84.5349 58.3994C86.5494 56.607 85.3778 52.0188 85.5389 51.7263C85.6996 51.4341 91.0025 59.4657 90.6149 59.8242C90.2269 60.1823 84.1408 58.7506 84.5349 58.3994Z" fill="#333333"/>
<path fill-rule="evenodd" clip-rule="evenodd" d="M101.488 76.4716L88.2601 72.1374L52.702 60.4296L52.0791 58.2987L100.961 74.6677L101.488 76.4716Z" fill="#333333"/>
<path fill-rule="evenodd" clip-rule="evenodd" d="M101.06 69.1804L50.4668 52.7806L51.6834 56.9412L102.356 73.6129L101.06 69.1804Z" fill="#333333"/>
<path fill-rule="evenodd" clip-rule="evenodd" d="M77.7714 71.2126C79.1728 75.5482 81.9304 78.5417 85.5964 77.3644C89.2623 76.1868 89.9728 72.0792 88.5715 67.7439C87.1701 63.4086 84.1874 60.4869 80.5211 61.6645C76.8555 62.8418 76.37 66.8773 77.7714 71.2126Z" fill="#333333"/>
<path fill-rule="evenodd" clip-rule="evenodd" d="M79.2383 70.7555C80.0593 73.2949 81.6061 75.0702 82.6933 74.7208C83.7805 74.3717 83.7718 72.1024 82.9508 69.5631C82.1301 67.0237 80.808 65.176 79.7208 65.5254C78.6336 65.8744 78.4176 68.2162 79.2383 70.7555Z" fill="#E6E6E6"/>
<path fill-rule="evenodd" clip-rule="evenodd" d="M56.3749 65.402C57.7763 69.7373 60.5339 72.7311 64.1999 71.5535C67.8658 70.3763 68.5763 66.2686 67.175 61.9334C65.7736 57.5977 62.7909 54.6764 59.1246 55.8536C55.459 57.0308 54.9736 61.0664 56.3749 65.402Z" fill="#333333"/>
<path fill-rule="evenodd" clip-rule="evenodd" d="M57.8408 64.9445C58.6619 67.4838 60.2087 69.2591 61.2959 68.9101C62.3831 68.561 62.3743 66.2917 61.5533 63.7524C60.7326 61.2131 59.4105 59.3649 58.3233 59.7143C57.2361 60.0637 57.0201 62.4052 57.8408 64.9445Z" fill="#E6E6E6"/>
<path fill-rule="evenodd" clip-rule="evenodd" d="M112.747 45.8199C113.043 45.6079 113.118 45.2012 112.916 44.8986C110.408 41.1454 106.887 35.1294 105.725 35.4506C104.676 35.7409 91.8102 44.7663 88.2486 47.2734C87.689 47.6677 87.5064 48.4176 87.8351 49.0171C89.1976 51.4999 92.665 55.8011 93.9449 58.1327C94.1871 58.5738 94.7645 58.6982 95.1718 58.402L112.747 45.8199Z" fill="white"/>
<path fill-rule="evenodd" clip-rule="evenodd" d="M96.4568 63.2741C96.2815 62.8667 96.6375 62.4256 97.0727 62.5154C98.0901 62.7253 99.8704 62.9518 102.379 62.7583C106.533 62.4375 104.759 66.0809 103.008 66.3277C101.253 66.5745 98.4421 67.892 96.4568 63.2741Z" fill="white"/>
<path fill-rule="evenodd" clip-rule="evenodd" d="M119.544 53.0081C118.738 54.3615 114.87 54.2934 116.543 50.9697C117.235 49.5956 117.636 48.4224 117.869 47.5184C117.869 47.5184 119.577 48.8566 119.998 49.2328C119.831 50.3499 119.96 52.3089 119.544 53.0081Z" fill="white"/>
<path d="M97.837 33.9799C97.837 33.9799 95.6768 30.7218 92.5781 29.7976C89.4794 28.8733 65.5576 21.1564 65.5576 21.1564" stroke="#CCCCCC" stroke-width="0.941375"/>
<path d="M92.6515 37.9541C92.6515 37.9541 90.4916 34.696 87.3925 33.7718C84.2942 32.8475 60.3721 25.1306 60.3721 25.1306" stroke="#CCCCCC" stroke-width="0.941375"/>
<path d="M87.5265 42.6475C87.5265 42.6475 85.3666 39.3894 82.2675 38.4652C79.1692 37.5409 55.2471 29.824 55.2471 29.824" stroke="#CCCCCC" stroke-width="0.941375"/>
<path fill-rule="evenodd" clip-rule="evenodd" d="M117.492 57.336L117.699 55.9645C117.742 55.6771 117.639 55.3875 117.423 55.1925L114.943 52.9522C114.632 52.6713 114.164 52.6517 113.83 52.9062L104.177 60.2672C103.766 60.5807 103.719 61.1816 104.077 61.5553L106.245 63.8152C106.4 63.9761 106.61 64.0718 106.834 64.0819L109.064 64.1867C109.278 64.1968 109.488 64.1276 109.654 63.9928L117.181 57.879C117.349 57.7427 117.459 57.5491 117.492 57.336Z" fill="#333333"/>
<path fill-rule="evenodd" clip-rule="evenodd" d="M74.1911 44.7747L75.9186 53.0357C76.0477 53.6519 75.4837 54.1897 74.8714 54.0339L51.8274 47.9491C51.5351 47.8744 51.3042 47.6515 51.2195 47.3626L48.6807 38.6783C48.4938 38.0393 49.0814 37.4434 49.7254 37.6196L73.5806 44.1277C73.89 44.2118 74.1253 44.4623 74.1911 44.7747Z" fill="white"/>
<path fill-rule="evenodd" clip-rule="evenodd" d="M110.452 59.2265C110.651 59.5298 111.305 59.4548 111.914 59.0586C112.523 58.6625 112.855 58.0956 112.657 57.7922C112.459 57.4889 111.804 57.5639 111.195 57.9601C110.586 58.3562 110.253 58.9231 110.452 59.2265Z" fill="white"/>
<path fill-rule="evenodd" clip-rule="evenodd" d="M102.222 30.4814L86.7732 17.7594C86.7554 17.7445 86.7336 17.7351 86.711 17.7314L86.4834 17.6963L101.317 30.556C101.374 30.6053 101.377 30.692 101.323 30.7449L101.025 31.0381L102.176 30.7036C102.275 30.6749 102.302 30.547 102.222 30.4814Z" fill="#333333"/>
<path d="M38.2285 29.9897L0.776367 12.9545" stroke="#0CB8F4" stroke-width="0.724135"/>
<path d="M50.9554 26.3653L24.957 14.5857" stroke="#0CB8F4" stroke-width="0.724135"/>
<path d="M42.5911 46.3002L16.5928 34.5205" stroke="#0CB8F4" stroke-width="0.724135"/>
<path fill-rule="evenodd" clip-rule="evenodd" d="M148.171 14.324C148.171 22.0798 141.864 28.3672 134.083 28.3672C126.302 28.3672 119.995 22.0798 119.995 14.324C119.995 6.56868 126.302 0.28125 134.083 0.28125C141.864 0.28125 148.171 6.56868 148.171 14.324Z" fill="#0CB8F4"/>
<path d="M133.771 6.44421V15.2601" stroke="white" stroke-width="4.67574" stroke-linecap="round" stroke-linejoin="round"/>
<path d="M141.988 15.2603H133.77" stroke="white" stroke-width="4.67574" stroke-linecap="round" stroke-linejoin="round"/>
</svg>
