<svg width="14" height="16" viewBox="0 0 14 16" fill="none" xmlns="http://www.w3.org/2000/svg">
<path d="M2 8.25C2 7.55937 2.55969 7 3.25 7H5.75C6.44063 7 7 7.55937 7 8.25V10.75C7 11.4406 6.44063 12 5.75 12H3.25C2.55969 12 2 11.4406 2 10.75V8.25ZM3 8.25V10.75C3 10.8875 3.11188 11 3.25 11H5.75C5.8875 11 6 10.8875 6 10.75V8.25C6 8.1125 5.8875 8 5.75 8H3.25C3.11188 8 3 8.1125 3 8.25ZM4 2H10V0.5C10 0.223875 10.225 0 10.5 0C10.775 0 11 0.223875 11 0.5V2H12C13.1031 2 14 2.89531 14 4V14C14 15.1031 13.1031 16 12 16H2C0.895313 16 0 15.1031 0 14V4C0 2.89531 0.895313 2 2 2H3V0.5C3 0.223875 3.225 0 3.5 0C3.775 0 4 0.223875 4 0.5V2ZM1 14C1 14.5531 1.44781 15 2 15H12C12.5531 15 13 14.5531 13 14V6H1V14ZM1 4V5H13V4C13 3.44688 12.5531 3 12 3H2C1.44781 3 1 3.44688 1 4Z" fill="black" fill-opacity="0.5"/>
</svg>
